{
	"asset":{
		"generator":"Khronos glTF Blender I/O v5.1.18",
		"version":"2.0"
	},
	"scene":0,
	"scenes":[
		{
			"name":"Scene",
			"nodes":[
				4,
				5,
				6,
				7
			]
		}
	],
	"nodes":[
		{
			"name":"Bone_end",
			"rotation":[
				-1.0658141036401503e-14,
				0,
				0,
				1
			],
			"translation":[
				0,
				0.8600000143051147,
				-3.8028534987688545e-08
			]
		},
		{
			"mesh":0,
			"name":"Lid",
			"rotation":[
				-1.7517233885655514e-08,
				-0.19509033858776093,
				1.543584815522081e-08,
				0.9807852506637573
			],
			"translation":[
				0,
				0.8519505262374878,
				0.19084568321704865
			]
		},
		{
			"mesh":1,
			"name":"lockTop",
			"rotation":[
				-0.70710688829422,
				0,
				0,
				0.7071066498756409
			],
			"translation":[
				0,
				0.838074266910553,
				-0.022050952538847923
			]
		},
		{
			"children":[
				0,
				1,
				2
			],
			"name":"Bone",
			"rotation":[
				1.0033481601112726e-07,
				0,
				0,
				1
			],
			"translation":[
				0,
				-6.2811835732645704e-09,
				2.7517710776692184e-08
			]
		},
		{
			"children":[
				3
			],
			"name":"Armature",
			"rotation":[
				0.7071068286895752,
				0,
				0,
				0.7071068286895752
			],
			"translation":[
				0,
				0.7062906622886658,
				-0.4250043034553528
			]
		},
		{
			"mesh":2,
			"name":"trunk",
			"translation":[
				0,
				0.04225277900695801,
				0
			]
		},
		{
			"mesh":3,
			"name":"lock_keyhole",
			"rotation":[
				0.6935198903083801,
				-0.13794972002506256,
				-0.13794970512390137,
				0.6935199499130249
			],
			"translation":[
				0,
				0.5074997544288635,
				0.3804933428764343
			]
		},
		{
			"mesh":4,
			"name":"lock_botSeal",
			"translation":[
				0,
				0.7029798626899719,
				0.4060016870498657
			]
		}
	],
	"animations":[
		{
			"channels":[
				{
					"sampler":0,
					"target":{
						"node":3,
						"path":"translation"
					}
				},
				{
					"sampler":1,
					"target":{
						"node":3,
						"path":"rotation"
					}
				},
				{
					"sampler":2,
					"target":{
						"node":3,
						"path":"scale"
					}
				},
				{
					"sampler":3,
					"target":{
						"node":0,
						"path":"translation"
					}
				},
				{
					"sampler":4,
					"target":{
						"node":0,
						"path":"rotation"
					}
				},
				{
					"sampler":5,
					"target":{
						"node":0,
						"path":"scale"
					}
				},
				{
					"sampler":6,
					"target":{
						"node":4,
						"path":"translation"
					}
				},
				{
					"sampler":7,
					"target":{
						"node":4,
						"path":"rotation"
					}
				},
				{
					"sampler":8,
					"target":{
						"node":4,
						"path":"scale"
					}
				}
			],
			"name":"Armature|ArmatureAction",
			"samplers":[
				{
					"input":20,
					"interpolation":"STEP",
					"output":21
				},
				{
					"input":20,
					"interpolation":"STEP",
					"output":22
				},
				{
					"input":20,
					"interpolation":"STEP",
					"output":23
				},
				{
					"input":20,
					"interpolation":"STEP",
					"output":24
				},
				{
					"input":20,
					"interpolation":"STEP",
					"output":25
				},
				{
					"input":20,
					"interpolation":"STEP",
					"output":23
				},
				{
					"input":20,
					"interpolation":"STEP",
					"output":26
				},
				{
					"input":27,
					"interpolation":"LINEAR",
					"output":28
				},
				{
					"input":20,
					"interpolation":"STEP",
					"output":23
				}
			]
		},
		{
			"channels":[
				{
					"sampler":0,
					"target":{
						"node":3,
						"path":"translation"
					}
				},
				{
					"sampler":1,
					"target":{
						"node":3,
						"path":"rotation"
					}
				},
				{
					"sampler":2,
					"target":{
						"node":3,
						"path":"scale"
					}
				},
				{
					"sampler":3,
					"target":{
						"node":0,
						"path":"translation"
					}
				},
				{
					"sampler":4,
					"target":{
						"node":0,
						"path":"rotation"
					}
				},
				{
					"sampler":5,
					"target":{
						"node":0,
						"path":"scale"
					}
				},
				{
					"sampler":6,
					"target":{
						"node":4,
						"path":"translation"
					}
				},
				{
					"sampler":7,
					"target":{
						"node":4,
						"path":"rotation"
					}
				},
				{
					"sampler":8,
					"target":{
						"node":4,
						"path":"scale"
					}
				}
			],
			"name":"Armature|ArmatureAction.001",
			"samplers":[
				{
					"input":20,
					"interpolation":"STEP",
					"output":21
				},
				{
					"input":20,
					"interpolation":"STEP",
					"output":22
				},
				{
					"input":20,
					"interpolation":"STEP",
					"output":23
				},
				{
					"input":20,
					"interpolation":"STEP",
					"output":24
				},
				{
					"input":20,
					"interpolation":"STEP",
					"output":25
				},
				{
					"input":20,
					"interpolation":"STEP",
					"output":23
				},
				{
					"input":20,
					"interpolation":"STEP",
					"output":26
				},
				{
					"input":27,
					"interpolation":"LINEAR",
					"output":28
				},
				{
					"input":20,
					"interpolation":"STEP",
					"output":23
				}
			]
		}
	],
	"materials":[
		{
			"doubleSided":true,
			"name":"chest",
			"normalTexture":{
				"index":0
			},
			"pbrMetallicRoughness":{
				"baseColorTexture":{
					"index":1
				},
				"metallicRoughnessTexture":{
					"index":2
				}
			}
		}
	],
	"meshes":[
		{
			"name":"Cylinder.014",
			"primitives":[
				{
					"attributes":{
						"POSITION":0,
						"NORMAL":1,
						"TEXCOORD_0":2
					},
					"indices":3,
					"material":0
				}
			]
		},
		{
			"name":"Cube.002",
			"primitives":[
				{
					"attributes":{
						"POSITION":4,
						"NORMAL":5,
						"TEXCOORD_0":6
					},
					"indices":7,
					"material":0
				}
			]
		},
		{
			"name":"Cube_retopo Data",
			"primitives":[
				{
					"attributes":{
						"POSITION":8,
						"NORMAL":9,
						"TEXCOORD_0":10
					},
					"indices":11,
					"material":0
				}
			]
		},
		{
			"name":"Cylinder.012",
			"primitives":[
				{
					"attributes":{
						"POSITION":12,
						"NORMAL":13,
						"TEXCOORD_0":14
					},
					"indices":15,
					"material":0
				}
			]
		},
		{
			"name":"Cube.003",
			"primitives":[
				{
					"attributes":{
						"POSITION":16,
						"NORMAL":17,
						"TEXCOORD_0":18
					},
					"indices":19,
					"material":0
				}
			]
		}
	],
	"textures":[
		{
			"sampler":0,
			"source":0
		},
		{
			"sampler":0,
			"source":1
		},
		{
			"sampler":0,
			"source":2
		}
	],
	"images":[
		{
			"mimeType":"image/png",
			"name":"leatherBronze_normal",
			"uri":"tex/leatherBronze_normal.png"
		},
		{
			"mimeType":"image/png",
			"name":"leatherBronze_albedo",
			"uri":"tex/leatherBronze_albedo.png"
		},
		{
			"mimeType":"image/png",
			"name":"leatherBronze_mixmap",
			"uri":"tex/leatherBronze_mixmap.png"
		}
	],
	"skins":[
		{
			"inverseBindMatrices":29,
			"joints":[
				3,
				0
			],
			"name":"Armature"
		}
	],
	"accessors":[
		{
			"bufferView":0,
			"componentType":5126,
			"count":2089,
			"max":[
				0.6728020906448364,
				0.04155457392334938,
				0.13365069031715393
			],
			"min":[
				-0.999807596206665,
				-0.8810580372810364,
				-0.9805572628974915
			],
			"type":"VEC3"
		},
		{
			"bufferView":1,
			"componentType":5126,
			"count":2089,
			"type":"VEC3"
		},
		{
			"bufferView":2,
			"componentType":5126,
			"count":2089,
			"type":"VEC2"
		},
		{
			"bufferView":3,
			"componentType":5123,
			"count":5988,
			"type":"SCALAR"
		},
		{
			"bufferView":4,
			"componentType":5126,
			"count":108,
			"max":[
				0.058143798261880875,
				0.0932125598192215,
				0.058143798261880875
			],
			"min":[
				-0.058143798261880875,
				-0.022168314084410667,
				-0.05549493432044983
			],
			"type":"VEC3"
		},
		{
			"bufferView":5,
			"componentType":5126,
			"count":108,
			"type":"VEC3"
		},
		{
			"bufferView":6,
			"componentType":5126,
			"count":108,
			"type":"VEC2"
		},
		{
			"bufferView":7,
			"componentType":5123,
			"count":168,
			"type":"SCALAR"
		},
		{
			"bufferView":8,
			"componentType":5126,
			"count":3658,
			"max":[
				0.8212151527404785,
				0.6640267372131348,
				0.4661434590816498
			],
			"min":[
				-0.8212151527404785,
				-0.04037904739379883,
				-0.4661434590816498
			],
			"type":"VEC3"
		},
		{
			"bufferView":9,
			"componentType":5126,
			"count":3658,
			"type":"VEC3"
		},
		{
			"bufferView":10,
			"componentType":5126,
			"count":3658,
			"type":"VEC2"
		},
		{
			"bufferView":11,
			"componentType":5123,
			"count":8067,
			"type":"SCALAR"
		},
		{
			"bufferView":12,
			"componentType":5126,
			"count":162,
			"max":[
				0.14364030957221985,
				0.096954844892025,
				0.14364030957221985
			],
			"min":[
				-0.14364030957221985,
				-0.01687879115343094,
				-0.15996457636356354
			],
			"type":"VEC3"
		},
		{
			"bufferView":13,
			"componentType":5126,
			"count":162,
			"type":"VEC3"
		},
		{
			"bufferView":14,
			"componentType":5126,
			"count":162,
			"type":"VEC2"
		},
		{
			"bufferView":15,
			"componentType":5123,
			"count":294,
			"type":"SCALAR"
		},
		{
			"bufferView":16,
			"componentType":5126,
			"count":116,
			"max":[
				0.04640817642211914,
				0.029555082321166992,
				0.04789196327328682
			],
			"min":[
				-0.04640817642211914,
				-0.06866511702537537,
				-0.028748251497745514
			],
			"type":"VEC3"
		},
		{
			"bufferView":17,
			"componentType":5126,
			"count":116,
			"type":"VEC3"
		},
		{
			"bufferView":18,
			"componentType":5126,
			"count":116,
			"type":"VEC2"
		},
		{
			"bufferView":19,
			"componentType":5123,
			"count":180,
			"type":"SCALAR"
		},
		{
			"bufferView":20,
			"componentType":5126,
			"count":2,
			"max":[
				1.5166666666666666
			],
			"min":[
				0.016666666666666666
			],
			"type":"SCALAR"
		},
		{
			"bufferView":21,
			"componentType":5126,
			"count":2,
			"type":"VEC3"
		},
		{
			"bufferView":22,
			"componentType":5126,
			"count":2,
			"type":"VEC4"
		},
		{
			"bufferView":23,
			"componentType":5126,
			"count":2,
			"type":"VEC3"
		},
		{
			"bufferView":24,
			"componentType":5126,
			"count":2,
			"type":"VEC3"
		},
		{
			"bufferView":25,
			"componentType":5126,
			"count":2,
			"type":"VEC4"
		},
		{
			"bufferView":26,
			"componentType":5126,
			"count":2,
			"type":"VEC3"
		},
		{
			"bufferView":27,
			"componentType":5126,
			"count":91,
			"max":[
				1.5166666666666666
			],
			"min":[
				0.016666666666666666
			],
			"type":"SCALAR"
		},
		{
			"bufferView":28,
			"componentType":5126,
			"count":91,
			"type":"VEC4"
		},
		{
			"bufferView":29,
			"componentType":5126,
			"count":2,
			"type":"MAT4"
		}
	],
	"bufferViews":[
		{
			"buffer":0,
			"byteLength":25068,
			"byteOffset":0,
			"target":34962
		},
		{
			"buffer":0,
			"byteLength":25068,
			"byteOffset":25068,
			"target":34962
		},
		{
			"buffer":0,
			"byteLength":16712,
			"byteOffset":50136,
			"target":34962
		},
		{
			"buffer":0,
			"byteLength":11976,
			"byteOffset":66848,
			"target":34963
		},
		{
			"buffer":0,
			"byteLength":1296,
			"byteOffset":78824,
			"target":34962
		},
		{
			"buffer":0,
			"byteLength":1296,
			"byteOffset":80120,
			"target":34962
		},
		{
			"buffer":0,
			"byteLength":864,
			"byteOffset":81416,
			"target":34962
		},
		{
			"buffer":0,
			"byteLength":336,
			"byteOffset":82280,
			"target":34963
		},
		{
			"buffer":0,
			"byteLength":43896,
			"byteOffset":82616,
			"target":34962
		},
		{
			"buffer":0,
			"byteLength":43896,
			"byteOffset":126512,
			"target":34962
		},
		{
			"buffer":0,
			"byteLength":29264,
			"byteOffset":170408,
			"target":34962
		},
		{
			"buffer":0,
			"byteLength":16134,
			"byteOffset":199672,
			"target":34963
		},
		{
			"buffer":0,
			"byteLength":1944,
			"byteOffset":215808,
			"target":34962
		},
		{
			"buffer":0,
			"byteLength":1944,
			"byteOffset":217752,
			"target":34962
		},
		{
			"buffer":0,
			"byteLength":1296,
			"byteOffset":219696,
			"target":34962
		},
		{
			"buffer":0,
			"byteLength":588,
			"byteOffset":220992,
			"target":34963
		},
		{
			"buffer":0,
			"byteLength":1392,
			"byteOffset":221580,
			"target":34962
		},
		{
			"buffer":0,
			"byteLength":1392,
			"byteOffset":222972,
			"target":34962
		},
		{
			"buffer":0,
			"byteLength":928,
			"byteOffset":224364,
			"target":34962
		},
		{
			"buffer":0,
			"byteLength":360,
			"byteOffset":225292,
			"target":34963
		},
		{
			"buffer":0,
			"byteLength":8,
			"byteOffset":225652
		},
		{
			"buffer":0,
			"byteLength":24,
			"byteOffset":225660
		},
		{
			"buffer":0,
			"byteLength":32,
			"byteOffset":225684
		},
		{
			"buffer":0,
			"byteLength":24,
			"byteOffset":225716
		},
		{
			"buffer":0,
			"byteLength":24,
			"byteOffset":225740
		},
		{
			"buffer":0,
			"byteLength":32,
			"byteOffset":225764
		},
		{
			"buffer":0,
			"byteLength":24,
			"byteOffset":225796
		},
		{
			"buffer":0,
			"byteLength":364,
			"byteOffset":225820
		},
		{
			"buffer":0,
			"byteLength":1456,
			"byteOffset":226184
		},
		{
			"buffer":0,
			"byteLength":128,
			"byteOffset":227640
		}
	],
	"samplers":[
		{
			"magFilter":9729,
			"minFilter":9987
		}
	],
	"buffers":[
		{
			"byteLength":227768,
			"uri":"ChestBlender.bin"
		}
	]
}
